<mxfile host="app.diagrams.net" agent="Mozilla/5.0 (Windows NT 10.0; Win64; x64) AppleWebKit/537.36 (KHTML, like Gecko) Chrome/137.0.0.0 Safari/537.36" version="27.1.4">
  <diagram name="Page-1" id="-6wxAB3YJiMIXl8_KeTQ">
    <mxGraphModel dx="689" dy="368" grid="1" gridSize="10" guides="1" tooltips="1" connect="1" arrows="1" fold="1" page="1" pageScale="1" pageWidth="827" pageHeight="1169" math="0" shadow="0">
      <root>
        <mxCell id="0" />
        <mxCell id="1" parent="0" />
        <mxCell id="P57heRVRvNYTLODIQCyF-33" value="" style="rounded=0;whiteSpace=wrap;html=1;" vertex="1" parent="1">
          <mxGeometry x="328" y="79" width="90" height="50" as="geometry" />
        </mxCell>
        <mxCell id="P57heRVRvNYTLODIQCyF-26" value="" style="rounded=0;whiteSpace=wrap;html=1;" vertex="1" parent="1">
          <mxGeometry x="180" y="270" width="320" height="40" as="geometry" />
        </mxCell>
        <mxCell id="P57heRVRvNYTLODIQCyF-20" value="" style="rounded=0;whiteSpace=wrap;html=1;" vertex="1" parent="1">
          <mxGeometry x="330" y="180" width="160" height="60" as="geometry" />
        </mxCell>
        <mxCell id="P57heRVRvNYTLODIQCyF-12" value="" style="rounded=0;whiteSpace=wrap;html=1;" vertex="1" parent="1">
          <mxGeometry x="180" y="79" width="120" height="111" as="geometry" />
        </mxCell>
        <mxCell id="P57heRVRvNYTLODIQCyF-37" style="edgeStyle=orthogonalEdgeStyle;rounded=0;orthogonalLoop=1;jettySize=auto;html=1;exitX=0.25;exitY=1;exitDx=0;exitDy=0;entryX=0.5;entryY=0;entryDx=0;entryDy=0;startArrow=classic;startFill=1;endArrow=none;fillColor=#f8cecc;strokeColor=#b85450;" edge="1" parent="1" source="P57heRVRvNYTLODIQCyF-1" target="P57heRVRvNYTLODIQCyF-36">
          <mxGeometry relative="1" as="geometry">
            <Array as="points">
              <mxPoint x="220" y="200" />
              <mxPoint x="220" y="200" />
            </Array>
          </mxGeometry>
        </mxCell>
        <mxCell id="P57heRVRvNYTLODIQCyF-1" value="Static archive" style="rounded=1;whiteSpace=wrap;html=1;" vertex="1" parent="1">
          <mxGeometry x="200" y="95" width="80" height="20" as="geometry" />
        </mxCell>
        <mxCell id="P57heRVRvNYTLODIQCyF-4" style="edgeStyle=orthogonalEdgeStyle;rounded=0;orthogonalLoop=1;jettySize=auto;html=1;entryX=0;entryY=0.5;entryDx=0;entryDy=0;" edge="1" parent="1" source="P57heRVRvNYTLODIQCyF-3" target="P57heRVRvNYTLODIQCyF-1">
          <mxGeometry relative="1" as="geometry" />
        </mxCell>
        <mxCell id="P57heRVRvNYTLODIQCyF-3" value="User" style="shape=umlActor;verticalLabelPosition=bottom;verticalAlign=top;html=1;outlineConnect=0;fontSize=10;" vertex="1" parent="1">
          <mxGeometry x="100" y="90" width="15" height="30" as="geometry" />
        </mxCell>
        <mxCell id="P57heRVRvNYTLODIQCyF-7" style="edgeStyle=orthogonalEdgeStyle;rounded=0;orthogonalLoop=1;jettySize=auto;html=1;entryX=1;entryY=0.5;entryDx=0;entryDy=0;dashed=1;" edge="1" parent="1" source="P57heRVRvNYTLODIQCyF-6" target="P57heRVRvNYTLODIQCyF-1">
          <mxGeometry relative="1" as="geometry" />
        </mxCell>
        <mxCell id="P57heRVRvNYTLODIQCyF-6" value="Astro build" style="rounded=0;whiteSpace=wrap;html=1;" vertex="1" parent="1">
          <mxGeometry x="340" y="95" width="66" height="20" as="geometry" />
        </mxCell>
        <mxCell id="P57heRVRvNYTLODIQCyF-10" value="Squarespace&lt;div&gt;Domains&lt;/div&gt;" style="text;html=1;align=center;verticalAlign=middle;whiteSpace=wrap;rounded=0;" vertex="1" parent="1">
          <mxGeometry x="115" y="30" width="80" height="30" as="geometry" />
        </mxCell>
        <mxCell id="P57heRVRvNYTLODIQCyF-14" style="edgeStyle=orthogonalEdgeStyle;rounded=0;orthogonalLoop=1;jettySize=auto;html=1;entryX=0;entryY=0.5;entryDx=0;entryDy=0;" edge="1" parent="1" source="P57heRVRvNYTLODIQCyF-11" target="P57heRVRvNYTLODIQCyF-13">
          <mxGeometry relative="1" as="geometry" />
        </mxCell>
        <mxCell id="P57heRVRvNYTLODIQCyF-11" value="Admin" style="shape=umlActor;verticalLabelPosition=bottom;verticalAlign=top;html=1;outlineConnect=0;fontSize=10;" vertex="1" parent="1">
          <mxGeometry x="100" y="150" width="15" height="30" as="geometry" />
        </mxCell>
        <mxCell id="P57heRVRvNYTLODIQCyF-16" style="edgeStyle=orthogonalEdgeStyle;rounded=0;orthogonalLoop=1;jettySize=auto;html=1;exitX=0.5;exitY=0;exitDx=0;exitDy=0;entryX=0.25;entryY=1;entryDx=0;entryDy=0;dashed=1;" edge="1" parent="1" source="P57heRVRvNYTLODIQCyF-13" target="P57heRVRvNYTLODIQCyF-6">
          <mxGeometry relative="1" as="geometry" />
        </mxCell>
        <mxCell id="P57heRVRvNYTLODIQCyF-17" value="Manual trigger" style="edgeLabel;html=1;align=center;verticalAlign=middle;resizable=0;points=[];fontSize=9;" vertex="1" connectable="0" parent="P57heRVRvNYTLODIQCyF-16">
          <mxGeometry x="-0.0079" relative="1" as="geometry">
            <mxPoint as="offset" />
          </mxGeometry>
        </mxCell>
        <mxCell id="P57heRVRvNYTLODIQCyF-13" value="SPA portal" style="rounded=1;whiteSpace=wrap;html=1;" vertex="1" parent="1">
          <mxGeometry x="200" y="155" width="80" height="20" as="geometry" />
        </mxCell>
        <mxCell id="P57heRVRvNYTLODIQCyF-15" value="GitHub Pages" style="text;html=1;align=center;verticalAlign=middle;whiteSpace=wrap;rounded=0;" vertex="1" parent="1">
          <mxGeometry x="201" y="60" width="79" height="19" as="geometry" />
        </mxCell>
        <mxCell id="P57heRVRvNYTLODIQCyF-9" value="" style="rounded=0;whiteSpace=wrap;html=1;" vertex="1" parent="1">
          <mxGeometry x="150" y="65" width="10" height="255" as="geometry" />
        </mxCell>
        <mxCell id="P57heRVRvNYTLODIQCyF-22" style="edgeStyle=orthogonalEdgeStyle;rounded=0;orthogonalLoop=1;jettySize=auto;html=1;exitX=1;exitY=0.5;exitDx=0;exitDy=0;startArrow=classic;startFill=1;" edge="1" parent="1" source="P57heRVRvNYTLODIQCyF-19" target="P57heRVRvNYTLODIQCyF-21">
          <mxGeometry relative="1" as="geometry" />
        </mxCell>
        <mxCell id="P57heRVRvNYTLODIQCyF-24" style="edgeStyle=orthogonalEdgeStyle;rounded=0;orthogonalLoop=1;jettySize=auto;html=1;entryX=0.5;entryY=1;entryDx=0;entryDy=0;startArrow=classic;startFill=1;" edge="1" parent="1" source="P57heRVRvNYTLODIQCyF-19" target="P57heRVRvNYTLODIQCyF-6">
          <mxGeometry relative="1" as="geometry" />
        </mxCell>
        <mxCell id="P57heRVRvNYTLODIQCyF-25" style="edgeStyle=orthogonalEdgeStyle;rounded=0;orthogonalLoop=1;jettySize=auto;html=1;entryX=0.5;entryY=1;entryDx=0;entryDy=0;startArrow=classic;startFill=1;" edge="1" parent="1" source="P57heRVRvNYTLODIQCyF-19" target="P57heRVRvNYTLODIQCyF-13">
          <mxGeometry relative="1" as="geometry" />
        </mxCell>
        <mxCell id="P57heRVRvNYTLODIQCyF-30" style="edgeStyle=orthogonalEdgeStyle;rounded=0;orthogonalLoop=1;jettySize=auto;html=1;entryX=0.5;entryY=0;entryDx=0;entryDy=0;startArrow=classic;startFill=1;" edge="1" parent="1" source="P57heRVRvNYTLODIQCyF-19" target="P57heRVRvNYTLODIQCyF-28">
          <mxGeometry relative="1" as="geometry">
            <Array as="points">
              <mxPoint x="373" y="250" />
              <mxPoint x="303" y="250" />
            </Array>
          </mxGeometry>
        </mxCell>
        <mxCell id="P57heRVRvNYTLODIQCyF-31" style="edgeStyle=orthogonalEdgeStyle;rounded=0;orthogonalLoop=1;jettySize=auto;html=1;exitX=0.5;exitY=1;exitDx=0;exitDy=0;entryX=0.5;entryY=0;entryDx=0;entryDy=0;" edge="1" parent="1" source="P57heRVRvNYTLODIQCyF-19" target="P57heRVRvNYTLODIQCyF-29">
          <mxGeometry relative="1" as="geometry" />
        </mxCell>
        <mxCell id="P57heRVRvNYTLODIQCyF-45" style="edgeStyle=orthogonalEdgeStyle;rounded=0;orthogonalLoop=1;jettySize=auto;html=1;exitX=0.5;exitY=1;exitDx=0;exitDy=0;entryX=0.5;entryY=0;entryDx=0;entryDy=0;" edge="1" parent="1" source="P57heRVRvNYTLODIQCyF-19" target="P57heRVRvNYTLODIQCyF-44">
          <mxGeometry relative="1" as="geometry" />
        </mxCell>
        <mxCell id="P57heRVRvNYTLODIQCyF-19" value="Server" style="rounded=0;whiteSpace=wrap;html=1;" vertex="1" parent="1">
          <mxGeometry x="340" y="200" width="66" height="20" as="geometry" />
        </mxCell>
        <mxCell id="P57heRVRvNYTLODIQCyF-21" value="DB" style="shape=cylinder3;whiteSpace=wrap;html=1;boundedLbl=1;backgroundOutline=1;size=4.0926038953992645;" vertex="1" parent="1">
          <mxGeometry x="446" y="195" width="30" height="30" as="geometry" />
        </mxCell>
        <mxCell id="P57heRVRvNYTLODIQCyF-23" value="Railway" style="text;html=1;align=center;verticalAlign=middle;whiteSpace=wrap;rounded=0;" vertex="1" parent="1">
          <mxGeometry x="370" y="161" width="80" height="19" as="geometry" />
        </mxCell>
        <mxCell id="P57heRVRvNYTLODIQCyF-27" value="3rd party" style="text;html=1;align=left;verticalAlign=middle;whiteSpace=wrap;rounded=0;" vertex="1" parent="1">
          <mxGeometry x="233" y="251" width="100" height="19" as="geometry" />
        </mxCell>
        <mxCell id="P57heRVRvNYTLODIQCyF-28" value="SendGrid" style="rounded=0;whiteSpace=wrap;html=1;" vertex="1" parent="1">
          <mxGeometry x="273" y="280" width="60" height="20" as="geometry" />
        </mxCell>
        <mxCell id="P57heRVRvNYTLODIQCyF-29" value="AWS S3" style="rounded=0;whiteSpace=wrap;html=1;" vertex="1" parent="1">
          <mxGeometry x="343" y="280" width="60" height="20" as="geometry" />
        </mxCell>
        <mxCell id="P57heRVRvNYTLODIQCyF-34" value="GitHub Actions" style="text;html=1;align=center;verticalAlign=middle;whiteSpace=wrap;rounded=0;" vertex="1" parent="1">
          <mxGeometry x="329.75" y="60" width="86.5" height="19" as="geometry" />
        </mxCell>
        <mxCell id="P57heRVRvNYTLODIQCyF-36" value="Maps API" style="rounded=0;whiteSpace=wrap;html=1;" vertex="1" parent="1">
          <mxGeometry x="190" y="280" width="60" height="20" as="geometry" />
        </mxCell>
        <mxCell id="P57heRVRvNYTLODIQCyF-38" value="" style="ellipse;whiteSpace=wrap;html=1;aspect=fixed;fillColor=#000000;" vertex="1" parent="1">
          <mxGeometry x="371" y="248" width="4" height="4" as="geometry" />
        </mxCell>
        <mxCell id="P57heRVRvNYTLODIQCyF-44" value="Google OAuth" style="rounded=0;whiteSpace=wrap;html=1;" vertex="1" parent="1">
          <mxGeometry x="410" y="280" width="84" height="20" as="geometry" />
        </mxCell>
      </root>
    </mxGraphModel>
  </diagram>
</mxfile>
